HIERARCHY
ROOT SpineBase
{
  OFFSET 0.000000 0.000000 0.000000
  CHANNELS 6 Xposition Yposition Zposition Zrotation Xrotation Yrotation
  JOINT SpineMid
  {
    OFFSET 0.000000 26.249118 0.000000
    CHANNELS 3 Zrotation Xrotation Yrotation
    JOINT SpineShoulder
    {
      OFFSET 0.010300 19.632794 -0.712933
      CHANNELS 3 Zrotation Xrotation Yrotation
      JOINT Neck
      {
        OFFSET -0.008124 6.530360 -0.508473
        CHANNELS 3 Zrotation Xrotation Yrotation
        JOINT Head
        {
          OFFSET -2.322088 10.646416 2.017725
          CHANNELS 3 Zrotation Xrotation Yrotation
          End Site
          {
            OFFSET 0 0 0
          }
        }
      }
      JOINT ShoulderLeft
      {
        OFFSET -13.246876 -3.698472 3.449577
        CHANNELS 3 Zrotation Xrotation Yrotation
        JOINT ElbowLeft
        {
          OFFSET -1.007982 -21.754622 3.200906
          CHANNELS 3 Zrotation Xrotation Yrotation
          JOINT WristLeft
          {
            OFFSET -1.902860 -21.195137 -3.339607
            CHANNELS 3 Zrotation Xrotation Yrotation
            JOINT HandLeft
            {
              OFFSET 0.106904 -6.832856 -1.730804
              CHANNELS 3 Zrotation Xrotation Yrotation
              JOINT HandTipLeft
              {
                OFFSET -0.037322 -6.127015 -0.806738
                CHANNELS 3 Zrotation Xrotation Yrotation
                End Site
                {
                  OFFSET 0 0 0
                }
              }
              JOINT ThumbLeft
              {
                OFFSET 2.038242 -0.744177 -2.866821
                CHANNELS 3 Zrotation Xrotation Yrotation
                End Site
                {
                  OFFSET 0 0 0
                }
              }
            }
          }
        }
      }
      JOINT ShoulderRight
      {
        OFFSET 11.607442 -2.033047 -5.570723
        CHANNELS 3 Zrotation Xrotation Yrotation
        JOINT ElbowRight
        {
          OFFSET 5.686068 -21.516751 -0.867037
          CHANNELS 3 Zrotation Xrotation Yrotation
          JOINT WristRight
          {
            OFFSET -0.703746 -20.111404 -6.474671
            CHANNELS 3 Zrotation Xrotation Yrotation
            JOINT HandRight
            {
              OFFSET -1.321411 -6.317224 -0.679076
              CHANNELS 3 Zrotation Xrotation Yrotation
              JOINT HandTipRight
              {
                OFFSET 0.195437 -6.273470 -1.816589
                CHANNELS 3 Zrotation Xrotation Yrotation
                End Site
                {
                  OFFSET 0 0 0
                }
              }
              JOINT ThumbRight
              {
                OFFSET 1.913228 -0.509112 -2.429784
                CHANNELS 3 Zrotation Xrotation Yrotation
                End Site
                {
                  OFFSET 0 0 0
                }
              }
            }
          }
        }
      }
    }
  }
  JOINT HipLeft
  {
    OFFSET -5.828769 0.395662 -1.344332
    CHANNELS 3 Zrotation Xrotation Yrotation
    JOINT KneeLeft
    {
      OFFSET 3.979938 -33.719776 2.100439
      CHANNELS 3 Zrotation Xrotation Yrotation
      JOINT AnkleLeft
      {
        OFFSET 7.230188 -34.526568 3.543051
        CHANNELS 3 Zrotation Xrotation Yrotation
        JOINT FootLeft
        {
          OFFSET -3.031884 -2.762780 -11.281749
          CHANNELS 3 Zrotation Xrotation Yrotation
          End Site
          {
            OFFSET 0 0 0
          }
        }
      }
    }
  }
  JOINT HipRight
  {
    OFFSET 5.465976 1.199243 -4.553894
    CHANNELS 3 Zrotation Xrotation Yrotation
    JOINT KneeRight
    {
      OFFSET 6.177326 -31.433940 -1.571273
      CHANNELS 3 Zrotation Xrotation Yrotation
      JOINT AnkleRight
      {
        OFFSET 2.810987 -35.499115 5.984678
        CHANNELS 3 Zrotation Xrotation Yrotation
        JOINT FootRight
        {
          OFFSET -3.053442 -2.282415 -12.712611
          CHANNELS 3 Zrotation Xrotation Yrotation
          End Site
          {
            OFFSET 0 0 0
          }
        }
      }
    }
  }
}
MOTION
Frames: 16
Frame Time: 0.033333
23.250366 73.132522 368.477013 -0.000000 0.000000 15.863248 -0.000000 0.000000 -15.863248 -0.000000 0.000000 0.000000 -0.000000 0.000000 0.000000 0.000000 0.000000 0.000000 -0.000000 0.000000 0.000000 -0.000000 0.000000 0.000000 -0.000000 0.000000 0.000000 -0.000000 0.000000 0.000000 0.000000 0.000000 0.000000 0.000000 0.000000 0.000000 -0.000000 0.000000 0.000000 -0.000000 0.000000 0.000000 -0.000000 0.000000 0.000000 -0.000000 0.000000 0.000000 0.000000 0.000000 0.000000 0.000000 0.000000 0.000000 -0.000000 0.000000 -15.863248 -0.000000 0.000000 0.000000 -0.000000 0.000000 0.000000 0.000000 0.000000 0.000000 -0.000000 0.000000 -15.863248 -0.000000 0.000000 0.000000 -0.000000 0.000000 0.000000 0.000000 0.000000 0.000000
23.289906 73.124139 368.458110 0.051557 -0.052424 15.836659 -0.035294 0.064504 -15.836615 -0.000000 0.000000 0.000000 -0.000000 0.000000 0.000000 0.000000 0.000000 0.000000 -0.000000 0.000000 0.000000 -0.000000 0.000000 0.000000 -0.000000 0.000000 0.000000 -0.602416 1.670394 0.077775 0.000000 0.000000 0.000000 0.000000 0.000000 0.000000 -0.000000 0.000000 0.000000 -0.000000 0.000000 0.000000 -0.000000 0.000000 0.000000 -0.102017 -1.077288 -0.004994 0.000000 0.000000 0.000000 0.000000 0.000000 0.000000 -0.035294 0.064504 -15.836615 -0.000000 0.000000 0.000000 -0.000000 0.000000 0.000000 0.000000 0.000000 0.000000 -0.035294 0.064504 -15.836615 -0.000000 0.000000 0.000000 1.829818 -9.630310 5.639880 0.000000 0.000000 0.000000
23.327852 73.117109 368.449589 0.094800 -0.095377 15.834246 -0.065179 0.117624 -15.834101 -0.000000 0.000000 0.000000 -0.000000 0.000000 0.000000 0.000000 0.000000 0.000000 -0.000000 0.000000 0.000000 0.037708 1.110428 -0.105844 0.353047 -2.389303 -0.001140 -1.606823 4.372341 0.322341 0.000000 0.000000 0.000000 0.000000 0.000000 0.000000 -0.000000 0.000000 0.000000 -0.000000 0.000000 0.000000 -0.717898 0.485338 -0.021271 0.468567 -2.440926 0.032587 0.000000 0.000000 0.000000 0.000000 0.000000 0.000000 -0.065179 0.117624 -15.834101 -0.000000 0.000000 0.000000 -0.000000 0.000000 0.000000 0.000000 0.000000 0.000000 -0.065179 0.117624 -15.834101 -0.000000 0.000000 0.000000 5.481237 -20.923766 13.263053 0.000000 0.000000 0.000000
23.364205 73.111431 368.451451 0.129748 -0.128876 15.856187 -0.089599 0.159422 -15.855916 -0.000000 0.000000 0.000000 -0.000000 0.000000 0.000000 0.000000 0.000000 0.000000 0.718599 0.752959 0.066207 -0.708498 0.773258 -0.213736 0.540870 -3.430535 -0.005883 -2.380151 6.148130 0.517163 0.000000 0.000000 0.000000 0.000000 0.000000 0.000000 -0.000000 0.000000 0.000000 -0.000000 0.000000 0.000000 -0.895463 0.609491 -0.026410 0.451894 -3.232595 0.068511 0.000000 0.000000 0.000000 0.000000 0.000000 0.000000 -0.089599 0.159422 -15.855916 -0.851029 -0.671891 -0.233247 0.848346 0.675276 0.223257 0.000000 0.000000 0.000000 -0.089599 0.159422 -15.855916 -0.000000 0.000000 0.000000 10.829304 -31.019622 21.944798 0.000000 0.000000 0.000000
23.398963 73.107107 368.463696 0.156411 -0.152932 15.902615 -0.108522 0.189936 -15.902227 -0.000000 0.000000 0.000000 0.129868 -0.791935 -0.196656 0.000000 0.000000 0.000000 0.878796 0.879810 0.081914 -0.928502 0.971152 -0.252919 0.736776 -4.378493 -0.015465 -3.124550 7.624120 0.726404 0.000000 0.000000 0.000000 0.000000 0.000000 0.000000 -0.000000 0.000000 0.000000 -0.000000 0.000000 0.000000 -0.958102 0.658509 -0.029176 0.273614 -3.728828 0.117777 0.000000 0.000000 0.000000 0.000000 0.000000 0.000000 -0.108522 0.189936 -15.902227 -1.037543 -0.811468 -0.284085 1.033612 0.816470 0.269372 0.000000 0.000000 0.000000 -0.108522 0.189936 -15.902227 -0.000000 0.000000 0.000000 15.627953 -37.071664 28.790673 0.000000 0.000000 0.000000
23.432127 73.104135 368.486325 0.174793 -0.167544 15.973626 -0.121938 0.209177 -15.973148 -0.000000 0.000000 0.000000 0.154673 -1.018240 -0.250381 0.000000 0.000000 0.000000 0.999477 0.944647 0.095207 -1.140971 1.141781 -0.275434 0.941009 -5.239255 -0.031254 -3.832131 8.788064 0.942997 0.000000 0.000000 0.000000 0.000000 0.000000 0.000000 -0.000000 0.000000 0.000000 -0.000000 0.000000 0.000000 -0.909591 0.634858 -0.029912 -0.062026 -3.925290 0.182019 0.000000 0.000000 0.000000 0.000000 0.000000 0.000000 -0.121938 0.209177 -15.973148 -1.175812 -0.909533 -0.320893 1.170849 0.915912 0.302201 0.000000 0.000000 0.000000 -0.121938 0.209177 -15.973148 -0.000000 0.000000 0.000000 16.868308 -38.311161 30.567991 0.000000 0.000000 0.000000
23.459929 73.098595 368.526599 0.174335 -0.175865 16.068353 -0.118848 0.217247 -16.067860 -0.000000 0.000000 0.000000 0.132144 -1.262467 -0.299505 0.000000 0.000000 0.000000 1.041722 0.971563 0.099596 -1.403812 1.324498 -0.264043 1.188357 -6.218835 -0.051133 -3.946753 9.055226 1.018976 0.000000 0.000000 0.000000 0.000000 0.000000 0.000000 -0.817757 -0.112209 0.002504 0.817764 0.112162 -0.004105 -0.000000 0.000000 0.000000 -1.394291 -4.458253 0.213008 0.000000 0.000000 0.000000 0.000000 0.000000 0.000000 -0.118848 0.217247 -16.067860 -1.421818 -1.104999 -0.391656 1.252909 0.963770 1.198008 0.000000 0.000000 0.000000 -0.118848 0.217247 -16.067860 -0.000000 0.000000 0.000000 12.039598 -32.633525 24.121448 0.000000 0.000000 0.000000
23.488172 73.100673 368.572621 0.171032 -0.168528 16.207168 -0.117198 0.209567 -16.206702 -0.000000 0.000000 0.000000 0.127728 -1.522469 -0.355402 0.000000 0.000000 0.000000 1.103361 0.915177 0.111313 -1.705731 1.421035 -0.239842 1.737393 -6.777317 -0.138918 -5.173559 10.268624 1.395564 0.000000 0.000000 0.000000 0.000000 0.000000 0.000000 -0.936463 -0.221090 -0.022547 0.936383 0.221429 0.018930 -0.000000 0.000000 0.000000 -1.555771 -3.605943 0.291963 0.000000 0.000000 0.000000 0.000000 0.000000 0.000000 -0.117198 0.209567 -16.206702 -1.432486 -1.084748 -0.388369 1.248336 0.940767 1.261401 0.000000 0.000000 0.000000 -0.117198 0.209567 -16.206702 -0.000000 0.000000 0.000000 5.958905 -22.000816 14.757106 0.000000 0.000000 0.000000
23.516789 73.101783 368.623294 0.163868 -0.142684 16.341411 -0.117103 0.183026 -16.341020 -0.000000 0.000000 0.000000 0.146659 -1.808977 -0.421209 0.000000 0.000000 0.000000 1.199951 0.785698 0.132128 -1.969896 1.526339 -0.228453 1.900803 -7.403925 -0.168643 -5.809619 10.424012 1.610793 0.000000 0.000000 0.000000 0.000000 0.000000 0.000000 -1.016388 -0.329668 -0.049207 1.899728 0.035636 -0.233836 -0.884800 0.291249 0.276614 -1.465799 -1.901205 0.342696 0.000000 0.000000 0.000000 0.000000 0.000000 0.000000 -0.117103 0.183026 -16.341020 -1.308653 -0.961551 -0.347172 1.121258 0.827967 1.230078 0.000000 0.000000 0.000000 -0.117103 0.183026 -16.341020 -0.000000 0.000000 0.000000 1.783741 -9.701016 6.359890 0.000000 0.000000 0.000000
23.545573 73.101311 368.679138 0.165760 -0.120952 16.463861 -0.124686 0.162970 -16.463509 -0.000000 0.000000 0.000000 0.201225 -2.053729 -0.483972 0.000000 0.000000 0.000000 1.122943 0.572238 0.133268 -1.962031 1.408280 -0.182795 2.236210 -7.599806 -0.267053 -6.371218 10.518958 1.809818 0.000000 0.000000 0.000000 0.000000 0.000000 0.000000 -1.056840 -0.420966 -0.072729 2.406863 0.125096 -0.366281 -1.352383 0.288535 0.428190 -1.761902 -0.482176 0.488619 0.000000 0.000000 0.000000 0.000000 0.000000 0.000000 -0.124686 0.162970 -16.463509 -1.228677 -0.816147 -0.306216 1.048173 0.697941 1.151278 0.000000 0.000000 0.000000 -0.124686 0.162970 -16.463509 -0.000000 0.000000 0.000000 0.664820 -4.609068 3.245087 0.000000 0.000000 0.000000
23.570054 73.109909 368.720243 0.170463 -0.101120 16.601402 -0.134466 0.145607 -16.601081 -0.000000 0.000000 0.000000 0.199413 -2.297851 -0.536878 0.000000 0.000000 0.000000 1.017902 0.369571 0.129483 -1.790510 1.390869 -0.164464 2.115228 -7.140553 -0.274151 -5.913751 9.217549 1.628221 0.000000 0.000000 0.000000 0.000000 0.000000 0.000000 -1.049220 -0.448440 -0.080540 2.910269 0.054437 -0.522184 -1.865160 0.378452 0.592468 -2.425132 0.850138 0.745701 0.000000 0.000000 0.000000 0.000000 0.000000 0.000000 -0.134466 0.145607 -16.601081 -1.334196 -0.838267 -0.322767 1.329598 0.845542 0.303195 0.000000 0.000000 0.000000 -0.134466 0.145607 -16.601081 -0.000000 0.000000 0.000000 0.172780 -1.880556 1.716829 0.000000 0.000000 0.000000
23.590588 73.122429 368.742662 0.159508 -0.084081 16.718670 -0.128578 0.126412 -16.718411 -0.000000 0.000000 0.000000 0.273156 -2.491114 -0.591376 0.000000 0.000000 0.000000 0.958603 0.241303 0.127939 -1.636028 1.179555 -0.146428 1.873118 -5.911161 -0.269676 -5.096150 8.521196 1.336771 0.000000 0.000000 0.000000 0.000000 0.000000 0.000000 -1.025615 -0.415662 -0.072417 3.385831 -0.154461 -0.682001 -2.984642 1.132176 0.702489 -1.570573 1.046501 0.750891 0.000000 0.000000 0.000000 0.000000 0.000000 0.000000 -0.128578 0.126412 -16.718411 -1.340037 -0.771056 -0.308546 0.369280 2.586373 2.103830 0.000000 0.000000 0.000000 -0.128578 0.126412 -16.718411 -0.000000 0.000000 0.000000 -0.237391 0.593018 0.513860 0.000000 0.000000 0.000000
23.611369 73.127419 368.755593 0.162496 -0.081710 16.768989 -0.132012 0.125117 -16.768729 -0.000000 0.000000 0.000000 0.288968 -2.546391 -0.606041 0.000000 0.000000 0.000000 0.814554 -0.083393 0.124337 -1.467948 1.134441 -0.106959 1.795956 -5.170681 -0.297173 -4.435277 6.537369 1.111232 0.000000 0.000000 0.000000 0.000000 0.000000 0.000000 -0.981811 -0.364322 -0.059978 3.751033 -0.449595 -0.809916 -4.006727 1.330376 0.917647 -0.876119 1.835079 0.695897 0.000000 0.000000 0.000000 0.000000 0.000000 0.000000 -0.507609 0.865619 -16.730260 -0.741425 -1.366480 -0.350600 1.309655 0.773138 0.286980 0.000000 0.000000 0.000000 -0.132012 0.125117 -16.768729 -0.000000 0.000000 0.000000 0.588651 -4.047139 2.710256 0.000000 0.000000 0.000000
23.629127 73.127503 368.769070 0.168222 -0.063366 16.804518 -0.142719 0.109294 -16.804289 -0.000000 0.000000 0.000000 0.254581 -2.534250 -0.597663 0.000000 0.000000 0.000000 -0.000000 0.000000 0.000000 -0.684524 0.647990 0.053477 1.846687 -3.864498 -0.347416 -4.124210 4.726134 0.958625 0.000000 0.000000 0.000000 0.000000 0.000000 0.000000 -0.979056 -0.373827 -0.062680 4.103184 -0.797852 -0.900919 -5.001153 0.976082 1.256461 0.324265 3.423385 0.369758 0.000000 0.000000 0.000000 0.000000 0.000000 0.000000 -0.485577 0.847516 -16.763416 -0.845152 -1.408597 -0.370196 2.275184 -1.867637 -0.416024 0.000000 0.000000 0.000000 -0.142719 0.109294 -16.804289 -0.000000 0.000000 0.000000 1.093048 -6.485984 3.958834 0.000000 0.000000 0.000000
23.645619 73.130168 368.778500 0.189755 -0.062032 16.880810 -0.163566 0.114460 -16.880544 -0.000000 0.000000 0.000000 0.227317 -2.468510 -0.578781 0.000000 0.000000 0.000000 0.889270 0.497898 0.104017 -0.890206 -0.496223 -0.111736 1.112040 -2.227563 -0.296344 -3.157380 3.116875 0.695235 0.000000 0.000000 0.000000 0.000000 0.000000 0.000000 -1.134914 -0.599557 -0.118983 4.583001 -1.274993 -0.923034 -5.471251 0.094263 1.707784 1.169109 4.063093 -0.223234 0.000000 0.000000 0.000000 0.000000 0.000000 0.000000 -0.163566 0.114460 -16.880544 -1.496797 -0.869226 -0.347669 2.963442 -3.428170 -1.048922 0.000000 0.000000 0.000000 -0.163566 0.114460 -16.880544 -0.000000 0.000000 0.000000 1.523828 -8.422645 5.087775 0.000000 0.000000 0.000000
23.667841 73.134554 368.780886 0.194326 -0.067439 17.003498 -0.166111 0.121318 -17.003208 -0.000000 0.000000 0.000000 0.258985 -2.198912 -0.525425 0.000000 0.000000 0.000000 1.014938 0.918284 0.098813 -1.016650 -0.916388 -0.115077 1.220476 -1.523419 -0.317791 -3.312729 2.031328 0.685127 0.000000 0.000000 0.000000 0.000000 0.000000 0.000000 -1.628610 -0.629782 -0.110188 5.805670 -2.357225 -1.095891 -4.829138 1.009696 1.840161 0.649422 1.873595 -0.472103 0.000000 0.000000 0.000000 0.000000 0.000000 0.000000 -0.166111 0.121318 -17.003208 -1.479564 -0.759276 -0.321294 2.341988 -2.368595 0.286925 0.000000 0.000000 0.000000 -0.166111 0.121318 -17.003208 -0.000000 0.000000 0.000000 1.815563 -9.672880 5.928931 0.000000 0.000000 0.000000
